<?xml version="1.0" encoding="UTF-8"?>
<svg id="Layer_2" data-name="Layer 2" xmlns="http://www.w3.org/2000/svg" viewBox="0 0 139.68 78.7">
  <defs>
    <style>
      .cls-1, .cls-2 {
        fill: #00007c;
      }

      .cls-3 {
        fill: #d30010;
      }

      .cls-2 {
        stroke: #00007c;
        stroke-miterlimit: 10;
        stroke-width: .83px;
      }
    </style>
  </defs>
  <g id="OPZIONE_2">
    <g>
      <path class="cls-2" d="M24.51,29.49h-13.08v27.65h13.08c7.64,0,13.83-6.19,13.83-13.83s-6.19-13.83-13.83-13.83ZM27.87,43.42c0,3.07-2.49,5.56-5.56,5.56h-1.16v-11.12h1.16c3.07,0,5.56,2.49,5.56,5.56h0Z"/>
      <g>
        <path class="cls-2" d="M61.81,29.48v17.75c0,5.47-4.43,9.9-9.91,9.9s-9.9-4.43-9.9-9.9v-17.75h5.4v19.5c0,2.49,2.01,4.51,4.51,4.51s4.51-2.01,4.51-4.51v-19.5h5.4Z"/>
        <g>
          <path class="cls-3" d="M56.07,69.05C24.09,67.4,0,60.14,0,51.43c0-6.35,12.8-11.92,32.12-15.11l.28.71c-17.16,3.72-26.89,9.66-26.89,14.41,0,7.03,21.29,16.67,56.45,17.85-1.99-.06-3.96-.14-5.89-.24Z"/>
          <path class="cls-3" d="M61.96,69.28c1.4.04,2.83.07,4.28.09.59,0,1.2.02,1.79.02.38,0,.76,0,1.14,0,.62,0,1.23,0,1.84,0,38.36-.32,61.82-10.57,61.82-17.96,0-4.97-10.64-11.24-29.31-14.9,0,0,.48-.76.48-.76,21.29,3.07,35.67,8.93,35.67,15.66,0,9.82-30.63,17.8-68.66,17.96-.61,0-1.22,0-1.84,0"/>
          <polygon class="cls-3" points="74.68 43.8 74.68 47.86 62.57 67.2 74.68 43.8"/>
          <polygon class="cls-2" points="98.37 29.48 98.37 32.25 91.63 32.25 91.63 57.14 88.87 57.14 88.87 32.25 74.21 32.25 74.21 57.14 71.45 57.14 71.45 32.25 64.74 32.25 64.74 29.48 98.37 29.48"/>
          <path class="cls-2" d="M114.71,29.01c-7.93,0-14.36,6.43-14.36,14.36s6.43,14.36,14.36,14.36,14.36-6.43,14.36-14.36-6.43-14.36-14.36-14.36ZM114.71,55.86c-6.89,0-12.49-5.6-12.49-12.49s5.6-12.49,12.49-12.49,12.49,5.6,12.49,12.49-5.6,12.49-12.49,12.49Z"/>
          <polygon class="cls-3" points="104.65 0 74.68 47.86 74.68 43.8 97.34 0 104.65 0"/>
          <g>
            <path class="cls-1" d="M12.43,26.88c-.43-.19-.76-.47-1-.83-.24-.36-.37-.78-.38-1.26h.64c.03.55.24.98.64,1.29.4.31.93.46,1.59.46.61,0,1.1-.13,1.46-.38.36-.25.54-.6.54-1.04,0-.39-.17-.71-.5-.96-.33-.25-.87-.45-1.63-.62-.93-.21-1.6-.49-2.01-.83-.41-.34-.62-.79-.62-1.35,0-.61.23-1.09.69-1.45s1.09-.54,1.88-.54,1.48.2,1.96.6.73.96.76,1.68h-.64c-.03-.53-.22-.94-.58-1.23-.36-.29-.86-.43-1.49-.43s-1.07.13-1.41.38c-.34.25-.51.58-.51,1,0,.38.16.69.49.94.33.25.87.46,1.65.63.94.21,1.61.5,2.02.84.41.35.61.79.61,1.34,0,.63-.24,1.13-.72,1.5s-1.13.55-1.94.55c-.56,0-1.06-.1-1.49-.29Z"/>
            <path class="cls-1" d="M17.73,19.52h4.42v.61h-3.77v2.77h3.49v.6h-3.49v2.92h3.88v.61h-4.54v-7.51Z"/>
            <path class="cls-1" d="M23.43,19.52h2.85c.69,0,1.25.18,1.66.53.41.35.62.83.62,1.42,0,.41-.1.76-.31,1.05s-.49.5-.85.63c.44.13.77.35,1.01.67s.36.7.36,1.15c0,.63-.21,1.13-.64,1.5s-1,.55-1.73.55h-2.97v-7.51ZM26.26,22.9c.51,0,.92-.12,1.2-.36.29-.24.43-.58.43-1.02s-.14-.77-.43-1.01c-.29-.25-.68-.37-1.19-.37h-2.19v2.77h2.18ZM26.38,26.42c.54,0,.97-.13,1.27-.39.3-.26.46-.61.46-1.07s-.15-.82-.46-1.08c-.31-.25-.74-.38-1.3-.38h-2.26v2.92h2.3Z"/>
            <path class="cls-1" d="M31.86,19.52h.62l3.11,7.51h-.69l-.78-1.89h-3.9l-.77,1.89h-.7l3.11-7.51ZM33.88,24.54l-1.71-4.13-1.7,4.13h3.4Z"/>
            <path class="cls-1" d="M36.79,26.88c-.43-.19-.76-.47-1-.83-.24-.36-.37-.78-.38-1.26h.64c.03.55.24.98.64,1.29.4.31.93.46,1.59.46.61,0,1.1-.13,1.46-.38.36-.25.54-.6.54-1.04,0-.39-.17-.71-.5-.96-.33-.25-.87-.45-1.63-.62-.93-.21-1.6-.49-2.01-.83-.41-.34-.62-.79-.62-1.35,0-.61.23-1.09.69-1.45s1.09-.54,1.88-.54,1.48.2,1.96.6.73.96.76,1.68h-.64c-.03-.53-.22-.94-.58-1.23-.36-.29-.86-.43-1.49-.43s-1.07.13-1.41.38c-.34.25-.51.58-.51,1,0,.38.16.69.49.94.33.25.87.46,1.65.63.94.21,1.61.5,2.02.84.41.35.61.79.61,1.34,0,.63-.24,1.13-.72,1.5s-1.13.55-1.94.55c-.56,0-1.06-.1-1.49-.29Z"/>
            <path class="cls-1" d="M43.42,20.14h-2.59v-.62h5.83v.62h-2.6v6.89h-.64v-6.89Z"/>
            <path class="cls-1" d="M47.45,19.52h.65v7.51h-.65v-7.51Z"/>
            <path class="cls-1" d="M51.84,19.52h.62l3.11,7.51h-.69l-.78-1.89h-3.9l-.77,1.89h-.7l3.11-7.51ZM53.86,24.54l-1.71-4.13-1.7,4.13h3.4Z"/>
            <path class="cls-1" d="M56.21,19.52h.61l4.57,6.38v-6.38h.64v7.51h-.61l-4.57-6.39v6.39h-.64v-7.51Z"/>
            <path class="cls-1" d="M64.97,26.68c-.59-.33-1.04-.79-1.37-1.38-.33-.59-.49-1.26-.49-2.02s.16-1.43.49-2.02c.33-.59.79-1.05,1.37-1.38.59-.33,1.26-.49,2.01-.49s1.43.16,2.02.49c.59.33,1.04.79,1.37,1.38s.49,1.26.49,2.02-.16,1.43-.49,2.02c-.33.59-.78,1.05-1.37,1.38-.59.33-1.26.49-2.02.49s-1.42-.16-2.01-.49ZM64.18,24.96c.27.49.65.88,1.13,1.15.48.27,1.04.41,1.67.41s1.19-.14,1.67-.41c.49-.27.87-.65,1.14-1.14.27-.49.41-1.05.41-1.69s-.14-1.2-.41-1.69c-.27-.49-.65-.87-1.14-1.14-.49-.27-1.04-.41-1.67-.41s-1.19.14-1.67.41c-.48.27-.86.65-1.13,1.14-.27.49-.41,1.05-.41,1.69s.14,1.19.41,1.68Z"/>
          </g>
          <g>
            <path class="cls-1" d="M70.49,68.29c-.58-.33-1.03-.79-1.36-1.38-.33-.59-.49-1.26-.49-2.01s.16-1.42.49-2.01c.33-.59.78-1.05,1.36-1.38.58-.33,1.23-.5,1.96-.5.86,0,1.61.23,2.27.7s1.1,1.09,1.35,1.88h-.69c-.22-.59-.58-1.06-1.1-1.41-.52-.34-1.13-.51-1.81-.51-.61,0-1.15.14-1.63.41-.48.27-.85.65-1.12,1.15-.27.49-.4,1.05-.4,1.68s.13,1.19.4,1.68c.27.49.64.88,1.12,1.15.48.27,1.02.41,1.63.41.71,0,1.33-.18,1.87-.54.54-.36.91-.85,1.12-1.47h.69c-.15.54-.4,1-.76,1.41s-.79.71-1.29.93c-.5.22-1.04.33-1.63.33-.73,0-1.38-.17-1.96-.5Z"/>
            <path class="cls-1" d="M78.51,68.3c-.59-.33-1.04-.79-1.37-1.38-.33-.59-.49-1.26-.49-2.02s.16-1.43.49-2.02c.33-.59.79-1.05,1.37-1.38.59-.33,1.25-.49,2.01-.49s1.43.17,2.02.49c.59.33,1.04.79,1.37,1.38s.49,1.26.49,2.02-.16,1.43-.49,2.02-.78,1.05-1.37,1.38c-.59.33-1.26.49-2.02.49s-1.42-.16-2.01-.49ZM77.71,66.58c.27.49.65.88,1.13,1.15s1.04.41,1.67.41,1.19-.14,1.67-.41c.49-.27.86-.65,1.14-1.14.27-.49.41-1.05.41-1.69s-.14-1.2-.41-1.69c-.27-.49-.65-.87-1.14-1.14-.49-.27-1.04-.41-1.67-.41s-1.19.14-1.67.41c-.48.27-.86.65-1.13,1.14-.27.49-.41,1.05-.41,1.69s.14,1.19.41,1.68Z"/>
            <path class="cls-1" d="M86.38,68.5c-.43-.19-.76-.47-1-.83-.24-.36-.37-.78-.38-1.25h.64c.03.55.24.98.64,1.29.4.31.93.46,1.59.46.61,0,1.1-.13,1.46-.38s.54-.6.54-1.03c0-.39-.17-.71-.5-.96-.33-.25-.87-.45-1.63-.62-.93-.22-1.6-.49-2.01-.83-.41-.34-.62-.79-.62-1.35,0-.61.23-1.09.69-1.45.46-.36,1.09-.54,1.88-.54s1.48.2,1.96.6.73.96.76,1.68h-.64c-.03-.53-.22-.94-.59-1.23-.36-.29-.86-.44-1.49-.44s-1.07.13-1.41.38c-.34.25-.51.58-.51,1,0,.38.16.69.49.94s.87.46,1.65.63c.94.21,1.61.5,2.02.84s.61.79.61,1.34c0,.63-.24,1.13-.72,1.5-.48.37-1.13.55-1.94.55-.56,0-1.06-.1-1.49-.29Z"/>
            <path class="cls-1" d="M93.01,61.77h-2.59v-.62h5.83v.62h-2.6v6.89h-.64v-6.89Z"/>
            <path class="cls-1" d="M97.05,61.14h2.78c.5,0,.94.1,1.31.29.38.19.67.46.87.81.21.35.31.76.31,1.23,0,.62-.17,1.13-.51,1.53s-.81.66-1.41.76l2.04,2.88h-.78l-2.02-2.82h-1.94v2.82h-.65v-7.51ZM99.76,65.21c.59,0,1.06-.15,1.39-.46.34-.31.5-.73.5-1.27s-.17-.95-.5-1.25-.8-.46-1.39-.46h-2.06v3.44h2.06Z"/>
            <path class="cls-1" d="M104.12,67.96c-.5-.55-.76-1.3-.76-2.27v-4.55h.64v4.52c0,.8.19,1.42.57,1.84.38.43.92.64,1.62.64s1.24-.21,1.62-.64c.38-.43.57-1.04.57-1.84v-4.52h.64v4.55c0,.97-.25,1.72-.76,2.27s-1.2.82-2.08.82-1.57-.27-2.08-.82Z"/>
            <path class="cls-1" d="M109.86,68.17l4.28-6.4h-4.18v-.62h5.04v.49l-4.28,6.39h4.38v.62h-5.23v-.48Z"/>
            <path class="cls-1" d="M116.09,61.14h.65v7.51h-.65v-7.51Z"/>
            <path class="cls-1" d="M119.68,68.3c-.59-.33-1.04-.79-1.37-1.38s-.49-1.26-.49-2.02.16-1.43.49-2.02.79-1.05,1.37-1.38,1.26-.49,2.01-.49,1.43.17,2.02.49,1.04.79,1.37,1.38.49,1.26.49,2.02-.16,1.43-.49,2.02-.78,1.05-1.37,1.38c-.59.33-1.26.49-2.02.49s-1.42-.16-2.01-.49ZM118.89,66.58c.27.49.65.88,1.13,1.15s1.04.41,1.67.41,1.19-.14,1.67-.41c.49-.27.87-.65,1.14-1.14s.41-1.05.41-1.69-.14-1.2-.41-1.69-.65-.87-1.14-1.14c-.49-.27-1.04-.41-1.67-.41s-1.19.14-1.67.41c-.48.27-.86.65-1.13,1.14s-.41,1.05-.41,1.69.14,1.19.41,1.68Z"/>
            <path class="cls-1" d="M126.63,61.14h.61l4.57,6.38v-6.38h.64v7.51h-.61l-4.57-6.39v6.39h-.64v-7.51Z"/>
            <path class="cls-1" d="M134.05,61.14h.65v7.51h-.65v-7.51Z"/>
            <path class="cls-1" d="M69.17,71.05h.61l3.12,4.7,3.12-4.7h.6v7.51h-.64v-6.31l-2.81,4.22h-.54l-2.81-4.22v6.31h-.65v-7.51Z"/>
            <path class="cls-1" d="M78.23,71.05h4.42v.61h-3.77v2.77h3.49v.6h-3.49v2.92h3.88v.61h-4.54v-7.51Z"/>
            <path class="cls-1" d="M85.16,78.2c-.58-.33-1.03-.79-1.36-1.38-.33-.59-.49-1.26-.49-2.01s.16-1.42.49-2.01c.33-.59.78-1.05,1.36-1.38.58-.33,1.23-.5,1.96-.5.86,0,1.61.23,2.27.7s1.1,1.09,1.35,1.88h-.69c-.21-.59-.58-1.06-1.1-1.41s-1.13-.51-1.81-.51c-.61,0-1.15.14-1.63.41-.48.27-.85.65-1.12,1.15-.27.49-.4,1.05-.4,1.68s.13,1.19.4,1.68c.27.49.64.88,1.12,1.15.48.27,1.02.41,1.63.41.71,0,1.33-.18,1.87-.54.54-.36.91-.85,1.12-1.47h.69c-.15.54-.4,1-.76,1.41s-.79.71-1.29.93c-.5.22-1.04.33-1.63.33-.73,0-1.38-.17-1.96-.5Z"/>
            <path class="cls-1" d="M93.15,78.2c-.58-.33-1.03-.79-1.36-1.38-.33-.59-.49-1.26-.49-2.01s.16-1.42.49-2.01c.33-.59.78-1.05,1.36-1.38.58-.33,1.23-.5,1.96-.5.86,0,1.61.23,2.27.7s1.1,1.09,1.35,1.88h-.69c-.22-.59-.58-1.06-1.1-1.41-.52-.34-1.13-.51-1.81-.51-.61,0-1.15.14-1.63.41-.48.27-.85.65-1.12,1.15-.27.49-.4,1.05-.4,1.68s.13,1.19.4,1.68c.27.49.64.88,1.12,1.15.48.27,1.02.41,1.63.41.71,0,1.33-.18,1.87-.54.54-.36.91-.85,1.12-1.47h.69c-.15.54-.4,1-.76,1.41s-.79.71-1.29.93c-.5.22-1.04.33-1.63.33-.73,0-1.38-.17-1.96-.5Z"/>
            <path class="cls-1" d="M101.67,71.05h.62l3.11,7.51h-.69l-.78-1.89h-3.91l-.77,1.89h-.7l3.11-7.51ZM103.69,76.07l-1.71-4.13-1.69,4.13h3.4Z"/>
            <path class="cls-1" d="M106.03,71.05h.61l4.57,6.38v-6.38h.64v7.51h-.61l-4.57-6.39v6.39h-.64v-7.51Z"/>
            <path class="cls-1" d="M113.46,71.05h.65v7.51h-.65v-7.51Z"/>
            <path class="cls-1" d="M117.03,78.2c-.58-.33-1.03-.79-1.36-1.38-.33-.59-.49-1.26-.49-2.01s.16-1.42.49-2.01c.33-.59.78-1.05,1.36-1.38.58-.33,1.23-.5,1.96-.5.86,0,1.61.23,2.27.7s1.1,1.09,1.35,1.88h-.69c-.21-.59-.58-1.06-1.1-1.41s-1.13-.51-1.81-.51c-.61,0-1.15.14-1.63.41-.48.27-.85.65-1.12,1.15-.27.49-.4,1.05-.4,1.68s.13,1.19.4,1.68c.27.49.64.88,1.12,1.15.48.27,1.02.41,1.63.41.71,0,1.33-.18,1.87-.54.54-.36.91-.85,1.12-1.47h.69c-.15.54-.4,1-.76,1.41s-.79.71-1.29.93c-.5.22-1.04.33-1.63.33-.73,0-1.38-.17-1.96-.5Z"/>
            <path class="cls-1" d="M128.76,75.04h-4.4v3.52h-.65v-7.51h.65v3.37h4.4v-3.37h.65v7.51h-.65v-3.52Z"/>
            <path class="cls-1" d="M131.01,71.05h4.42v.61h-3.77v2.77h3.49v.6h-3.49v2.92h3.88v.61h-4.54v-7.51Z"/>
          </g>
          <g>
            <path class="cls-1" d="M135.24,41.68c-.2.26-.48.4-.82.41v-.38c.24-.02.43-.13.57-.31.14-.18.2-.44.2-.77,0-.3-.05-.54-.16-.71-.11-.17-.26-.26-.45-.26s-.33.09-.44.26c-.11.17-.2.44-.26.8-.08.45-.19.78-.36.99-.16.21-.38.32-.64.32-.29,0-.52-.12-.69-.35-.17-.23-.25-.55-.25-.96s.09-.73.28-.98c.18-.24.44-.38.77-.4v.39c-.23.02-.4.11-.52.28-.12.17-.18.41-.18.71,0,.28.05.51.16.67.11.16.26.25.44.25.17,0,.31-.08.41-.24s.19-.43.26-.81c.16-.87.51-1.31,1.03-1.31.29,0,.52.12.7.37.18.25.26.58.26.99,0,.44-.1.78-.3,1.04Z"/>
            <path class="cls-1" d="M135.4,39.08c-.06.06-.15.1-.25.1s-.19-.03-.25-.1-.1-.15-.1-.26.03-.19.1-.26.15-.1.25-.1.19.03.25.1.1.15.1.26-.03.19-.1.26Z"/>
            <path class="cls-1" d="M132.01,37.99v-.33l.67-.03c-.24-.13-.43-.31-.56-.54-.13-.23-.19-.48-.19-.76,0-.45.15-.8.44-1.06s.69-.39,1.19-.39h1.91v.39h-1.87c-.4,0-.71.1-.94.3-.23.2-.35.47-.35.81,0,.24.06.45.17.64s.28.33.48.44c.21.1.45.16.72.16h1.79v.39h-3.45Z"/>
            <path class="cls-1" d="M135.4,34.37c-.06.06-.15.1-.25.1s-.19-.03-.25-.1-.1-.15-.1-.26.03-.19.1-.26.15-.1.25-.1.19.03.25.1.1.15.1.26-.03.19-.1.26Z"/>
            <path class="cls-1" d="M135.31,32.86c-.16.27-.37.47-.64.62s-.59.22-.94.22-.66-.07-.94-.22c-.27-.15-.49-.36-.64-.62-.15-.27-.23-.57-.23-.91,0-.41.11-.77.34-1.08s.52-.52.9-.61v.39c-.27.11-.48.28-.63.51-.15.23-.23.49-.23.79,0,.27.06.5.18.71.12.21.29.37.51.49s.47.17.75.17.53-.06.75-.17c.22-.12.39-.28.51-.49.12-.21.18-.45.18-.71,0-.32-.08-.59-.25-.82s-.39-.4-.67-.5v-.41c.4.12.72.33.95.63.23.31.34.67.34,1.09,0,.34-.08.65-.23.91Z"/>
            <path class="cls-1" d="M135.4,30.1c-.06.06-.15.1-.25.1s-.19-.03-.25-.1-.1-.15-.1-.26.03-.19.1-.26.15-.1.25-.1.19.03.25.1.1.15.1.26-.03.19-.1.26Z"/>
          </g>
        </g>
      </g>
    </g>
  </g>
</svg>